<svg
  viewBox="0 0 600 200"
  fill="none"
  xmlns="http://www.w3.org/2000/svg"
>
  <title>AfroTix Logo</title>
  <path fill="#C41E3A"
    d="M151.40 130L147.60 118.50L122.60 118.50L118.80 130L98.20 130L123.90 59.50L146.50 59.50L172.10 130L151.40 130ZM127.60 103.50L142.70 103.50L135.10 80.70L127.60 103.50ZM208.80 73.90L208.80 90.20L200.00 90.20L200.00 130L180.30 130L180.30 90.20L174.20 90.20L174.20 73.90L180.30 73.90L180.30 73.40Q180.30 62.60 186.65 56.85Q193.00 51.10 204.90 51.10L204.90 51.10Q207.30 51.10 208.60 51.20L208.60 51.20L208.60 67.90Q207.80 67.80 206.40 67.80L206.40 67.80Q203.20 67.80 201.70 69.25Q200.20 70.70 200.00 73.90L200.00 73.90L208.80 73.90ZM235.40 83.80Q238.70 79 243.40 76.20Q248.10 73.40 253.50 73.40L253.50 73.40L253.50 94.30L248 94.30Q241.60 94.30 238.50 96.80Q235.40 99.30 235.40 105.50L235.40 105.50L235.40 130L215.80 130L215.80 73.90L235.40 73.90L235.40 83.80ZM286.60 130.70Q278.20 130.70 271.55 127.20Q264.90 123.70 261.10 117.20Q257.30 110.70 257.30 101.90L257.30 101.90Q257.30 93.20 261.15 86.70Q265 80.20 271.65 76.70Q278.30 73.20 286.70 73.20L286.70 73.20Q295.10 73.20 301.75 76.70Q308.40 80.20 312.25 86.70Q316.10 93.20 316.10 101.90L316.10 101.90Q316.10 110.60 312.25 117.15Q308.40 123.70 301.70 127.20Q295 130.70 286.60 130.70L286.60 130.70ZM286.60 113.70Q290.70 113.70 293.45 110.65Q296.20 107.60 296.20 101.90L296.20 101.90Q296.20 96.20 293.45 93.20Q290.70 90.20 286.70 90.20L286.70 90.20Q282.70 90.20 280 93.20Q277.30 96.20 277.30 101.90L277.30 101.90Q277.30 107.70 279.90 110.70Q282.50 113.70 286.60 113.70L286.60 113.70Z" />
  <path fill="#FFB800"
    d="M320.20 59.50L377.20 59.50L377.20 75.10L358.40 75.10L358.40 130L338.80 130L338.80 75.10L320.20 75.10L320.20 59.50ZM394.40 68.70Q389.20 68.70 386.05 65.85Q382.90 63 382.90 58.70L382.90 58.70Q382.90 54.30 386.05 51.40Q389.20 48.50 394.40 48.50L394.40 48.50Q399.50 48.50 402.65 51.40Q405.80 54.30 405.80 58.70L405.80 58.70Q405.80 63 402.65 65.85Q399.50 68.70 394.40 68.70L394.40 68.70ZM384.50 73.90L404.10 73.90L404.10 130L384.50 130L384.50 73.90ZM472.30 130L450.30 130L440.20 115.90L432.20 130L410.70 130L429.40 100.90L409.90 73.90L431.90 73.90L442 88L450.10 73.90L471.60 73.90L452.50 102.50L472.30 130Z" />
  <path fill="#228B22"
    d="M487.60 130.80Q482.40 130.80 479.25 127.95Q476.10 125.10 476.10 120.70L476.10 120.70Q476.10 116.30 479.25 113.40Q482.40 110.50 487.60 110.50L487.60 110.50Q492.70 110.50 495.85 113.40Q499 116.30 499 120.70L499 120.70Q499 125 495.85 127.90Q492.70 130.80 487.60 130.80L487.60 130.80Z" />
</svg>